<svg xmlns="http://www.w3.org/2000/svg" viewBox="0 0 1489.31 202.71"><defs><style>.cls-1{fill:#ff9100;}.cls-2{fill:#fff;}.cls-3{fill:#f7991f;}</style></defs><title>Asset 11</title><g id="Layer_2" data-name="Layer 2"><g id="Layer_1-2" data-name="Layer 1"><path d="M73.42,199.21c-28.8,0-51.32-10.83-66.95-32.19l-1.82-2.49,37.54-35.44L44.57,132c9.23,11.13,16.68,15.68,25.72,15.68,7.92,0,17.35-3.82,17.35-22V6.63h57.31V125.86c0,23.75-6,40.85-19,53.82C113.16,192.46,95,199.21,73.42,199.21Z"/><path d="M141.44,10.13V125.86c0,22.94-5.73,39.1-18,51.35-12,12-29.19,18.51-50,18.51-31.8,0-51.35-13.29-64.12-30.76L41.88,134.2c8.86,10.69,17.2,16.94,28.41,16.94,12.77,0,20.85-8.6,20.85-25.54V10.13h50.31m7-7H84.14V125.6c0,18.54-10.43,18.54-13.85,18.54-8,0-14.42-4-23-14.41L42.5,124l-5.43,5.12L4.49,159.86,0,164.1l3.64,5C20,191.4,43.44,202.71,73.42,202.71c22.53,0,41.55-7.11,55-20.56,13.67-13.67,20-31.56,20-56.3V3.13Z"/><path class="cls-1" d="M211.82,199.21c-34.22,0-65.41-11.05-87.83-31.13a3.5,3.5,0,0,1-.35-4.85l28.15-33.62a3.5,3.5,0,0,1,4.87-.49c17.59,14,36.76,21.13,57,21.13,6.48,0,17.35-1.17,17.35-9v-.52c0-4.28-2.06-8-28-14.05-37.69-8.6-71.52-19.72-71.52-60.75v-.52c0-37,29.79-61.89,74.14-61.89,31,0,56.29,8.18,77.26,25a3.5,3.5,0,0,1,.67,4.75L258.2,69a3.5,3.5,0,0,1-4.87.84C237.42,58.63,220,52.46,204.26,52.46c-9.1,0-14.75,3.15-14.75,8.23v.52c0,4.84,1.94,8.22,28.81,14.31,24.19,5.26,39.95,11.32,51.07,19.64,13.24,9.91,19.68,23.19,19.68,40.6v.52c0,19.21-7.47,35.27-21.6,46.44C253.84,193.51,234.59,199.21,211.82,199.21Z"/><path class="cls-2" d="M205.56,7c31,0,55.26,8.34,75.07,24.24L255.35,66.95c-16.68-11.73-34.93-18-51.09-18C192,49,186,54.18,186,60.69v.52c0,8.34,6.25,12,31.54,17.72,42,9.12,68,22.68,68,56.82v.52c0,37.27-29.45,59.43-73.76,59.43-32.32,0-63.08-10.17-85.49-30.24l28.15-33.62c18,14.34,38.05,21.89,59.17,21.89,13.55,0,20.85-4.69,20.85-12.51v-.52c0-7.56-6-11.73-30.76-17.46-38.84-8.86-68.81-19.81-68.81-57.34v-.52C134.93,31.5,161.77,7,205.56,7m0-7c-22.85,0-42.31,6.28-56.27,18.15-13.78,11.71-21.36,28.49-21.36,47.23v.52c0,19.77,7.48,34.55,22.86,45.18,8.14,5.63,20,11.82,51.39,19,11.63,2.69,18.84,5,22.67,7.26,2.64,1.56,2.64,2.32,2.64,3.38v.52a3.36,3.36,0,0,1-2,3.21c-1.4.86-4.81,2.3-11.86,2.3-19.41,0-37.85-6.85-54.8-20.37a7,7,0,0,0-9.73,1L121,161a7,7,0,0,0,.7,9.71c23.06,20.65,55.08,32,90.16,32,23.57,0,43.57-6,57.84-17.25,15-11.85,22.93-28.86,22.93-49.18v-.52c0-41.89-35.33-55.35-73.51-63.66-12.35-2.8-19.54-5-23.33-7.15C193,63.42,193,62.63,193,61.21v-.52c0-3.27,5.65-4.73,11.25-4.73,15,0,31.73,5.93,47.06,16.71A7,7,0,0,0,261.06,71l25.28-35.71a7,7,0,0,0-1.33-9.5C263.4,8.43,237.41,0,205.56,0Z"/><path d="M325.52,144.79l16.25-16.65c8.22,10.43,16.45,16.45,28.28,16.45,13.24,0,22.26-8.82,22.26-27.48V25.06h25.27v92.66c0,16.65-4.81,29.08-13,37.3s-20.06,12.43-34.1,12.43C348.79,167.46,334.75,157.43,325.52,144.79Z"/><path d="M437.43,126.94V59.56H461.7v60.17c0,16.45,8.22,25.87,22.66,25.87,14,0,23.87-9.83,23.87-26.27V59.56H532.5v105.9H508.23V149c-6.82,10-16.65,18.65-33.09,18.65C451.27,167.66,437.43,151.61,437.43,126.94Z"/><path d="M553,59.56h24.27V76c6.82-10,16.65-18.65,33.09-18.65,23.87,0,37.71,16,37.71,40.71v67.39H623.75V105.28c0-16.45-8.22-25.87-22.66-25.87-14,0-23.87,9.83-23.87,26.27v59.77H553Z"/><path d="M669.07,185.31l9-18.25c11.23,7,23.27,11.23,37.71,11.23,21.66,0,33.49-11.23,33.49-32.49v-8.22C740.47,149,729.44,157,712,157c-24.87,0-48.13-18.45-48.13-49.54v-.4c0-31.29,23.47-49.74,48.13-49.74,17.85,0,28.88,8.22,37.1,18.05V59.56h24.27v84.24c0,17.85-4.61,31.09-13.44,39.91-9.63,9.63-24.47,14.24-43.52,14.24C699,197.94,682.71,193.53,669.07,185.31Zm80.43-77.82v-.4c0-17.45-14.24-29.28-31.09-29.28s-30.08,11.63-30.08,29.08v.4c0,17.45,13.44,29.28,30.08,29.28C735.26,136.57,749.5,124.54,749.5,107.49Z"/><path d="M795,19h24.27V165.45H795Z"/><path d="M837.14,112.91v-.4c0-30.29,21.46-55.15,51.74-55.15,33.69,0,50.74,26.47,50.74,57,0,2.21-.2,4.41-.4,6.82H861.4C864,138.38,876.25,148,891.89,148c11.83,0,20.26-4.41,28.68-12.63L934.81,148c-10,12-23.87,19.86-43.32,19.86C860.8,167.86,837.14,145.6,837.14,112.91Zm78.42-7.82c-1.6-15.64-10.83-27.88-26.87-27.88-14.84,0-25.27,11.43-27.48,27.88Z"/><path class="cls-3" d="M976.09,144.12l9.83-11.63c14.64,13.24,28.68,19.86,48.13,19.86,18.85,0,31.29-10,31.29-23.87v-.4c0-13-7-20.46-36.5-26.67-32.29-7-47.13-17.45-47.13-40.51v-.4c0-22.06,19.46-38.31,46.13-38.31,20.46,0,35.1,5.82,49.34,17.25l-9.23,12.23c-13-10.63-26.07-15.24-40.51-15.24-18.25,0-29.88,10-29.88,22.66v.4c0,13.24,7.22,20.66,38.11,27.28,31.29,6.82,45.73,18.25,45.73,39.71v.4c0,24.07-20.06,39.71-47.93,39.71C1011.19,166.58,992.93,159.16,976.09,144.12Z"/><path class="cls-3" d="M1088.6,113.23v-.4c0-29.28,22.86-54.15,53.15-54.15,19.65,0,31.89,8.22,41.52,18.45L1173,88c-8.22-8.62-17.45-15.64-31.49-15.64-21.06,0-37.1,17.85-37.1,40.11v.4c0,22.46,16.45,40.31,38.11,40.31,13.24,0,23.47-6.62,31.69-15.44l9.83,9.23c-10.43,11.63-22.86,20.06-42.32,20.06C1111.46,167,1088.6,142.32,1088.6,113.23Z"/><path class="cls-3" d="M1196.1,113.23v-.4c0-29.28,22.86-54.15,54.15-54.15,31.09,0,54,24.47,54,53.75v.4A53.84,53.84,0,0,1,1249.85,167C1218.76,167,1196.1,142.52,1196.1,113.23Zm92.26,0v-.4c0-22.26-16.65-40.51-38.51-40.51-22.46,0-37.91,18.25-37.91,40.11v.4c0,22.26,16.45,40.31,38.31,40.31C1272.71,153.15,1288.35,135.1,1288.35,113.23Z"/><path class="cls-3" d="M1318.43,125.27V60.89h15.44v60.57c0,19.25,10.43,31.29,28.68,31.29,17.65,0,31.09-13,31.09-32.49V60.89h15.24V164.58h-15.24V146.53c-7,11.23-17.65,20.26-35.5,20.26C1333.07,166.78,1318.43,149.94,1318.43,125.27Z"/><path class="cls-3" d="M1441,137.1V74.53h-14.44V60.89H1441V29.6h15.44V60.89h32.89V74.53h-32.89V135.1c0,12.63,7,17.25,17.45,17.25a32.47,32.47,0,0,0,15-3.61V162a38.84,38.84,0,0,1-18.65,4.41C1453.61,166.38,1441,158.16,1441,137.1Z"/><path class="cls-3" d="M1252.07,84.82c10.13,2.59,18.3,14.5,18.3,27.86,0,12.05-6.55,23.26-15,27.55a27.89,27.89,0,0,0-3.27-55.41Z"/></g></g></svg>