<svg xmlns="http://www.w3.org/2000/svg" xmlns:xlink="http://www.w3.org/1999/xlink" width="477" height="261" viewBox="0 0 477 261">
    <defs>
        <path id="b" d="M3.978 14.314L136.366.418a4.003 4.003 0 0 1 4.397 3.56l17.818 169.312a3.998 3.998 0 0 1-3.558 4.397l-.001-.001-132.388 13.896a4.003 4.003 0 0 1-4.397-3.56L.419 18.71a3.998 3.998 0 0 1 3.56-4.396z"/>
        <filter id="a" width="113.7%" height="111.3%" x="-6.8%" y="-4.6%" filterUnits="objectBoundingBox">
            <feMorphology in="SourceAlpha" operator="dilate" radius="1.25" result="shadowSpreadOuter1"/>
            <feOffset dy="2" in="shadowSpreadOuter1" result="shadowOffsetOuter1"/>
            <feGaussianBlur in="shadowOffsetOuter1" result="shadowBlurOuter1" stdDeviation="3"/>
            <feComposite in="shadowBlurOuter1" in2="SourceAlpha" operator="out" result="shadowBlurOuter1"/>
            <feColorMatrix in="shadowBlurOuter1" values="0 0 0 0 0 0 0 0 0 0 0 0 0 0 0 0 0 0 0.15 0"/>
        </filter>
    </defs>
    <g fill="none" fill-rule="evenodd">
        <path fill="#F0F3F4" d="M253.717 14.407c8.243 0 14.925 11.04 14.925 24.66 0 13.618-6.682 24.658-14.925 24.658H390.17c8.242 0 14.924 11.04 14.924 24.66 0 13.619-6.682 24.66-14.924 24.66h46.905c8.243 0 14.925 11.04 14.925 24.658 0 13.62-6.682 24.66-14.925 24.66h-40.509c-8.243 0-14.924 11.04-14.924 24.659s6.681 24.66 14.924 24.66h12.792c7.61 0 14.925 11.04 14.925 24.659S417.601 261 409.358 261H298.491a9.38 9.38 0 0 1-3.199-.567 9.38 9.38 0 0 1-3.198.567H98.075c-8.242 0-14.924-11.04-14.924-24.66 0-13.618 6.682-24.659 14.924-24.659h-83.15C6.682 211.681 0 200.641 0 187.022s6.682-24.66 14.925-24.66h85.283c8.242 0 14.924-11.04 14.924-24.659s-6.682-24.659-14.924-24.659H46.906c-8.243 0-14.925-11.04-14.925-24.66 0-13.618 6.682-24.659 14.925-24.659h85.283c-4.765 0-14.925-11.04-14.925-24.659s9.717-23.744 14.925-24.66c5.208-.914 113.285 0 121.528 0zM455 213c12.15 0 22 9.85 22 22s-9.85 22-22 22-22-9.85-22-22 9.85-22 22-22z"/>
        <g transform="matrix(-1 0 0 1 185 177)">
            <path fill="#C5CFD6" d="M71.007 67.986l-.014.032c.006-.01.014-.05.014-.032"/>
            <path fill="#C5CFD6" d="M70.998 68.001l-.002.01c0-.01.018-.04.002-.01"/>
            <path fill="#C5CFD6" d="M71.067 67.832c-.014.04-.032.078-.048.118l.024-.056c-.208.52-.076.182.024-.062"/>
            <path fill="#C5CFD6" d="M71.022 67.953l-.024.056c-.058.112.024-.056.024-.056M71 68.001v-.002zM70.999 68.002l.002-.004-.002.004M70.99 68.016c-.012.024.056-.092 0 0"/>
            <path fill="#C5CFD6" d="M70.998 68.002l.004-.004c-.002.002-.002.004-.004.004"/>
            <rect width="116" height="75" fill="#E7EBED" rx="4"/>
            <path stroke="#C7D0FA" stroke-linecap="square" stroke-width="2" d="M54.162 60.788v8.481"/>
            <path fill="#C7D0FA" d="M54.162 61.495c2.672 0 4.838-1.032 4.838-7.045S56.834 41 54.162 41s-4.838 7.437-4.838 13.45c0 6.013 2.166 7.045 4.838 7.045z"/>
            <circle cx="87.5" cy="26.5" r="9.5" fill="#FFF"/>
        </g>
        <path stroke="#FFF" stroke-linecap="round" stroke-linejoin="round" stroke-width="2" d="M97.855 190.436V189m8.29 5.265l1.152-1.164m2.282 10.258H111m-4.855 8.376l1.152 1.164m-9.442 2.665V217m-9-5.265l-1.152 1.164m-2.282-9.54H84m4.855-9.094l-1.152-1.164"/>
        <path stroke="#9BACF5" stroke-linecap="square" stroke-width="2" d="M155.838 238.289v8.423"/>
        <path fill="#9BACF5" d="M155.676 237.587c3.866 0 7-1.964 7-13.406 0-11.443-3.134-25.594-7-25.594s-7 14.15-7 25.594c0 11.442 3.134 13.406 7 13.406z"/>
        <g transform="translate(346)">
            <rect width="6" height="25" y="32" fill="#E7EBED" rx="3"/>
            <rect width="6" height="41" x="14" y="16" fill="#E7EBED" rx="3"/>
            <rect width="6" height="49" x="28" y="8" fill="#E7EBED" rx="3"/>
            <rect width="6" height="41" x="42" y="16" fill="#E7EBED" rx="3"/>
            <rect width="6" height="57" x="56" fill="#CFD8DC" rx="3"/>
        </g>
        <g>
            <path fill="#CFD8DC" d="M67.051 102.504a8.095 8.095 0 0 1-5.9 2.546c-4.476 0-8.103-3.604-8.103-8.05 0-4.446 3.627-8.05 8.102-8.05V74C48.42 74 38 84.352 38 97s10.42 23 23.15 23c6.687 0 12.73-2.81 16.85-7.282l-10.949-10.214z"/>
            <path fill="#7088F0" d="M61 74v14.95A8.05 8.05 0 0 1 69.05 97H84c0-12.648-10.352-23-23-23z"/>
            <path fill="#9BACF5" d="M69.073 97A7.98 7.98 0 0 1 66 103.293L75.196 115C80.55 110.809 84 104.312 84 97H69.073z"/>
        </g>
        <g>
            <path fill="#CFD8DC" d="M314.051 39.504a8.095 8.095 0 0 1-5.9 2.546c-4.476 0-8.103-3.604-8.103-8.05 0-4.446 3.627-8.05 8.102-8.05V11C295.42 11 285 21.352 285 34s10.42 23 23.15 23c6.687 0 12.73-2.81 16.85-7.282l-10.949-10.214z"/>
            <path fill="#7088F0" d="M308 11v14.95a8.05 8.05 0 0 1 8.05 8.05H331c0-12.648-10.352-23-23-23z"/>
            <path fill="#9BACF5" d="M316.073 34A7.98 7.98 0 0 1 313 40.293L322.196 52C327.55 47.809 331 41.312 331 34h-14.927z"/>
        </g>
        <g transform="rotate(10 -290.573 1309.024)">
            <path fill="#FFF" stroke="#CFD8DC" stroke-width="2.5" d="M4.018 5.064L145.313.139a4 4 0 0 1 4.136 3.837l5.18 129.42a4 4 0 0 1-3.857 4.157L9.477 142.48a4 4 0 0 1-4.136-3.838L.161 9.221a4 4 0 0 1 3.857-4.157z"/>
            <rect width="14" height="14" x="104.939" y="109.995" fill="#4563EC" rx="4" transform="rotate(-2 111.94 116.995)"/>
            <rect width="14" height="14" x="70.939" y="110.995" fill="#CFD8DC" rx="4" transform="rotate(-2 77.94 117.995)"/>
            <path fill="#F4F6F8" d="M149.905 75.739c-5.611-19.594-18.37-27.847-29.854-25.967-11.485 1.88-22.131 11.893-32.65 21.064-10.518 9.17-21.64 17.812-33.152 16.679-8.731-.859-17.076-7.319-25.763-9.253-8.687-1.935-16.571 3.14-21.108 17.687L3.905 31.901l145.043-6.938.957 50.776z"/>
            <path fill="#CFD8DC" d="M22.92 75.497l1.002.574c.325.18.73.432 1.202.674l1.601.756c.61.278 1.38.55 2.16.869.83.277 1.723.584 2.72.858 1.986.57 4.385.984 7.036 1.334.673.065 1.349.163 2.058.208l2.164.134 2.261.085 2.349-.005c.796-.022 1.602-.066 2.42-.096.818-.049 1.64-.126 2.479-.188.826-.095 1.676-.16 2.56-.188.87-.06 1.703-.229 2.56-.358l2.548-.494 2.63-.573c1.75-.38 3.495-.82 5.298-1.202 3.566-.81 7.302-1.525 10.786-2.562 3.494-1.018 6.935-2.106 10.315-3.19l9.893-3.224c3.224-1.04 6.374-2.036 9.459-2.909 1.54-.438 3.058-.853 4.597-1.17.766-.159 1.527-.305 2.291-.428.76-.127 1.495-.263 2.24-.36 2.944-.45 5.711-.727 8.184-.944 2.479-.219 4.7-.203 6.519-.163 1.815.093 3.252.177 4.213.303l1.485.164c1.065.117 1.761.71 1.559 1.323-.203.613-1.23 1.015-2.294.898a.073.073 0 0 0-.012-.001l-.305-.036-1.287-.151c-.829-.12-2.078-.204-3.665-.28-1.596-.03-3.542-.047-5.768.155-2.227.172-4.71.516-7.44.944-.693.084-1.389.21-2.103.325-.715.112-1.444.238-2.178.38-1.472.28-2.946.656-4.453 1.056-3.017.797-6.154 1.727-9.405 2.71L90.56 73.782l-10.428 3.14c-3.512 1.043-6.925 2.252-10.546 3.122-.887.24-1.801.44-2.715.63-.905.2-1.829.381-2.756.538l-2.74.457c-.955.132-1.885.282-2.806.427-.936.125-1.87.22-2.754.406-.887.183-1.785.343-2.704.405-.92.06-1.82.147-2.722.18l-2.671.052-2.595-.03-2.508-.085c-1.642-.083-3.242-.113-4.788-.212-.785-.018-1.513-.152-2.247-.233a23.29 23.29 0 0 1-2.093-.359c-.667-.142-1.336-.255-1.952-.414l-1.792-.47c-1.142-.322-2.167-.68-3.112-1.005-.9-.37-1.747-.68-2.475-1.017a73.323 73.323 0 0 1-1.9-.947c-.51-.28-.867-.516-1.196-.709l-.974-.588c-.75-.454-.72-1.171.065-1.603.773-.425 1.986-.415 2.74.015l.028.016z"/>
            <path fill="#4563EC" d="M20.118 88.957l15.12-6.309-.714.521c.965-1.207 1.97-2.37 2.954-3.558.997-1.173 1.96-2.38 2.985-3.526l6.082-6.943.044-.052c.255-.289.583-.455.921-.499.858-.11 1.715-.218 2.587-.211.872.008 1.725-.131 2.58-.249l5.14-.702 5.136-.706 5.161-.517-.446.189 2.536-1.764c.843-.591 1.699-1.164 2.517-1.793 1.668-1.211 3.293-2.488 4.904-3.787l9.713-7.724a.934.934 0 0 1 .358-.176l.05-.013 10.546-2.513 5.273-1.263c1.76-.407 3.506-.884 5.284-1.194l-.447.179c1.79-1.075 3.629-2.056 5.45-3.072 1.82-1.02 3.64-2.037 5.4-3.172 3.535-2.243 7.103-4.422 10.6-6.735.71-.47 1.634-.224 2.065.548.432.774.206 1.78-.503 2.25a.199.199 0 0 1-.023.013l-.076.05-10.628 6.684c-1.763 1.127-3.565 2.18-5.346 3.274-.899.535-1.826 1.009-2.738 1.515l-2.733 1.518-.11.062a1.03 1.03 0 0 1-.335.114c-1.783.28-3.538.712-5.304 1.08l-5.294 1.142-10.587 2.286.582-.27-9.825 7.55a133.486 133.486 0 0 0-4.867 3.845l-4.81 3.936a1.52 1.52 0 0 1-.655.318l-.166.032c-1.699.344-3.414.558-5.123.83l-2.575.29c-.859.099-1.724.136-2.587.207-1.727.122-3.458.211-5.178.384-.86.078-1.726.124-2.566.363-.422.108-.845.203-1.274.265-.427.065-.86.093-1.288.139l.83-.472-3.11 3.404a111.393 111.393 0 0 0-3.085 3.427 32.783 32.783 0 0 0-1.48 1.773c-.494.592-.935 1.236-1.396 1.861-.901 1.269-1.82 2.52-2.808 3.703a1.333 1.333 0 0 1-.517.386l-.025.01-7.576 3.11a303.972 303.972 0 0 1-7.598 3.04c-.783.302-1.64-.143-1.919-.995-.274-.838.118-1.759.876-2.075l.018-.008z"/>
            <path fill="#FFF" d="M75.857 53.278l-2.991.083-4.331 5.834-5.87-5.553-47.193 1.306-.965-34.805 60.386-1.671z"/>
            <path fill="#CFD8DC" d="M74.249 52.571l-.588-16.24c-.115-2.923-.193-5.847-.272-8.769-.042-1.461-.088-2.923-.078-4.386l-.014-4.388 1.374 1.31c-2.519.033-5.037.025-7.555.124l-7.552.23-15.103.456-15.105.459-7.551.228c-2.518.087-5.036.131-7.553.251l1.343-1.429c.277 5.844.53 11.687.738 17.533.067 1.46.111 2.922.11 4.384.013 1.463.037 2.924.01 4.388l-.077 8.779-1.242-1.185 2.954.016c.984-.013 1.965-.117 2.95-.161 1.964-.126 3.936-.048 5.904-.082l11.81-.094c1.97-.045 3.935-.164 5.901-.306 1.966-.107 3.93-.28 5.898-.332l11.802-.392c.335-.01.642.116.868.329l.01.01 5.89 5.573-1.87.166 4.316-5.896c.24-.326.601-.505.975-.52h.017l1.69-.056zm1.373 2.558l-2.993.115 1.026-.538-4.296 5.911a1.356 1.356 0 0 1-2.024.2l-.019-.02-5.91-5.553 1.02.393-11.802.454-11.804.344-11.81.186c-1.967.012-3.935.104-5.905.05l-2.955-.056-2.951.06-.015.001a1.128 1.128 0 0 1-1.15-1.109l-.193-8.77c-.049-2.925-.168-5.847-.15-8.773l-.034-8.775-.113-8.773v-.02a.664.664 0 0 1 .652-.675c2.52-.03 5.034-.18 7.552-.265l7.55-.298 15.1-.602 15.1-.636 7.55-.317c2.515-.132 5.034-.145 7.552-.203l.031-.001a1.26 1.26 0 0 1 1.285 1.236v.019l.065 8.774.072 4.387c.027 1.462.104 2.923.153 4.383l.673 17.534a1.284 1.284 0 0 1-1.228 1.336h-.001l-.028.001z"/>
            <g fill="#CFD8DC">
                <path d="M24.854 26.804l1.708-.161 1.96-.188c.758-.06 1.61-.183 2.545-.206a42.5 42.5 0 0 1 3.014-.073l1.648.045c.28-.007.566.042.855.125.288.07.576.035.868.034 1.168-.01 2.373-.082 3.6-.05 1.226.023 2.477.277 3.72.185 2.488-.142 4.972-.44 7.3-.743 1.163-.159 2.288-.26 3.356-.37.534-.057 1.053-.111 1.557-.113l1.458.073c.936.055 1.793.071 2.55-.025l1.96-.177c.543-.042.97-.103 1.261-.142l.446-.057c.63-.082 1.192.428 1.255 1.14.065.71-.393 1.354-1.022 1.435l-.035.005-.134.011s-.62.057-1.708.153c-.543.05-1.205.11-1.961.177-.757.066-1.612.161-2.546.133-.467-.012-.956-.082-1.46-.113a16.6 16.6 0 0 0-1.558.03l-3.363.152c-1.167.042-2.371.127-3.596.21-1.223.089-2.467.155-3.71.263-1.243.088-2.48.437-3.705.46-1.223.097-2.437-.184-3.606-.307-.294-.02-.585-.085-.87-.016a2.02 2.02 0 0 1-.849.102c-.562-.016-1.113-.076-1.65-.125-1.073-.11-2.084-.107-3.01.204-.93.221-1.787.195-2.543.284-.757.06-1.417.115-1.961.159a42.622 42.622 0 0 1-1.712.078c-.632.011-1.145-.56-1.147-1.277-.002-.685.465-1.254 1.06-1.313l.025-.002zM26.431 34.255l.987-.162c.629-.082 1.526-.232 2.604-.352.539-.052 1.125-.034 1.743-.029l.954.06c.162-.004.326.048.494.134.168.068.335.044.503.05.676 0 1.371-.076 2.081-.026.71.038 1.435.293 2.154.226 1.438-.133 2.872-.398 4.217-.683.672-.147 1.324-.238 1.941-.337.308-.053.607-.102.9-.1.29.02.573.058.844.087.54.07 1.036.094 1.473-.003.438-.06.82-.114 1.134-.158.314-.037.56-.094.729-.129l.257-.054c.553-.115 1.063.363 1.139 1.068.076.707-.312 1.373-.864 1.49a.842.842 0 0 1-.051.007l-.176.026-.987.136-1.134.159c-.438.059-.93.146-1.471.109-.272-.016-.555-.09-.845-.127a5.728 5.728 0 0 0-.902.017l-1.944.121c-.674.03-1.371.105-2.078.178-.708.077-1.426.13-2.145.227-.718.08-1.433.405-2.142.436-.706.095-1.41-.23-2.087-.35-.17-.016-.338-.104-.502-.024-.164.09-.327.133-.49.094-.326-.02-.645-.085-.955-.14-.621-.12-1.207-.125-1.742.177-.535.211-1.03.176-1.468.26-.438.054-.82.1-1.134.14a14.08 14.08 0 0 1-.989.062c-.558.009-1.005-.566-.996-1.282.008-.665.404-1.218.908-1.301l.04-.007zM87.515 117.076l.636-.18c.405-.094.983-.261 1.676-.401.346-.062.721-.056 1.118-.062l.61.043c.104-.008.208.041.314.124.106.065.214.037.322.04.433-.013.88-.102 1.334-.065.454.025.914.265 1.376.186.924-.16 1.849-.452 2.716-.762.434-.16.853-.263 1.25-.374.2-.059.392-.113.579-.116.186.013.367.046.54.07.345.06.662.075.944-.03l.73-.18c.202-.042.361-.104.47-.141l.165-.06c.357-.125.675.343.71 1.046.036.705-.225 1.377-.581 1.504l-.033.009-.114.029-.635.155-.73.18c-.282.067-.6.163-.945.136-.174-.01-.353-.08-.539-.11-.187-.02-.38.004-.579.033l-1.248.157c-.432.044-.88.13-1.335.217-.455.09-.917.157-1.38.268-.461.094-.925.431-1.38.475-.455.109-.9-.203-1.331-.31-.109-.013-.215-.098-.322-.014-.107.093-.212.139-.316.102-.208-.014-.412-.072-.61-.12-.395-.11-.77-.104-1.119.208-.347.221-.664.196-.946.287l-.73.161c-.403.07-.634.082-.634.082-.359.019-.634-.547-.615-1.262.018-.665.282-1.225.607-1.317l.025-.008zM121.515 116.076l.636-.18c.405-.094.983-.261 1.676-.401.346-.062.721-.056 1.118-.062l.61.043c.104-.008.208.041.314.124.106.065.214.037.322.04.433-.013.88-.102 1.334-.065.454.025.914.265 1.376.186.924-.16 1.849-.452 2.716-.762.434-.16.853-.263 1.25-.374.2-.059.392-.113.579-.116.186.013.367.046.54.07.345.06.662.075.944-.03l.73-.18c.202-.042.361-.104.47-.141l.165-.06c.357-.125.675.343.71 1.046.036.705-.225 1.377-.581 1.504a.378.378 0 0 1-.033.009l-.114.029-.635.155-.73.18c-.282.067-.6.163-.945.136-.174-.01-.353-.08-.539-.11-.187-.02-.38.004-.579.033l-1.248.157c-.432.044-.88.13-1.335.217-.455.09-.917.157-1.38.268-.461.094-.925.431-1.38.475-.455.109-.9-.203-1.331-.31-.109-.013-.215-.098-.322-.014-.107.093-.212.139-.316.102-.208-.014-.412-.072-.61-.12-.395-.11-.77-.104-1.119.208-.347.221-.664.196-.946.287l-.73.161c-.403.07-.634.082-.634.082-.359.019-.634-.547-.615-1.262.018-.665.282-1.225.607-1.317l.025-.008zM27.816 48.782l1.586-.17 1.822-.193c.704-.063 1.497-.19 2.365-.216a36.7 36.7 0 0 1 2.8-.084l1.53.04c.26-.009.525.038.793.12.268.068.535.033.806.031 1.085-.015 2.204-.09 3.343-.064 1.14.02 2.3.269 3.455.172 2.312-.151 4.62-.459 6.782-.77 1.082-.163 2.127-.269 3.12-.382.495-.06.978-.116 1.446-.12l1.354.068c.868.051 1.664.065 2.368-.035l1.822-.183c.504-.044.901-.107 1.171-.147l.415-.06c.585-.084 1.105.424 1.16 1.134.058.712-.37 1.357-.954 1.441l-.033.004-.124.013s-.577.057-1.587.16l-1.822.183c-.703.07-1.497.166-2.365.142-.434-.01-.888-.078-1.355-.108-.47-.019-.952.007-1.448.037l-3.124.164c-1.084.047-2.203.136-3.34.224-1.137.093-2.292.163-3.446.276-1.156.093-2.305.447-3.444.475-1.136.1-2.262-.175-3.349-.295-.271-.019-.542-.083-.807-.012-.264.09-.528.138-.788.104-.522-.012-1.034-.07-1.532-.117-.997-.107-1.936-.1-2.798.215-.863.224-1.66.2-2.362.293-.704.063-1.317.12-1.822.166a36.83 36.83 0 0 1-1.59.085c-.587.013-1.062-.556-1.06-1.273 0-.685.436-1.255.99-1.316l.022-.002z"/>
            </g>
            <path fill="#9AA8AE" d="M14.371 96.852l127.922-4.467.07 1.999L14.44 98.85z"/>
            <circle cx="68.367" cy="67.618" r="3" fill="#FFF" stroke="#4563EC" stroke-width="2"/>
            <circle cx="69.367" cy="78.618" r="3" fill="#FFF" stroke="#CFD8DC" stroke-width="2"/>
            <rect width="76" height="21" x="65.782" y="106.998" stroke="#9AA8AE" stroke-width="2" rx="1" transform="rotate(-2 103.782 117.498)"/>
        </g>
        <g>
            <g transform="rotate(2 -259.244 3205.164)">
                <use fill="#000" filter="url(#a)" xlink:href="#b"/>
                <use fill="#FFF" stroke="#CFD8DC" stroke-width="2.5" xlink:href="#b"/>
            </g>
            <path fill="#F5F7F8" d="M128.464 200.041c11.24.669 20.063-13.76 23.221-28.05 3.157-14.291 2.796-29.629 6.626-43.649 3.256-11.925 9.334-22.139 14.502-32.875 5.168-10.736 9.612-22.897 8.93-35.44-.342-6.282-1.958-12.287-2.682-18.502-.724-6.216-.409-13.134 2.616-18.106l69.905-6.05 10.134 173.976-133.252 8.696z"/>
            <g transform="rotate(-4 505.45 -1785.126)">
                <rect width="114" height="24" fill="#FBFBFB" rx="4"/>
                <path fill="#DDE3E9" d="M11.802 13.728c.91-.626.91-1.64 0-2.266L7.098 8.228c-.91-.626-1.648-.233-1.648.859v7.016c0 1.1.738 1.484 1.648.859l4.704-3.234z"/>
                <g fill="#4563EC" transform="translate(17 6.2)">
                    <rect width="56" height="3.6" x=".061" y=".842" rx="1.8"/>
                    <rect width="37.589" height="3.6" x=".061" y="6.842" rx="1.8"/>
                </g>
                <circle cx="3" cy="3" r="3" fill="#F2F2F2" transform="translate(98.817 9)"/>
            </g>
            <g transform="rotate(-4 963.63 -1801.126)">
                <rect width="114" height="20" fill="#FBFBFB" rx="4"/>
                <path fill="#DDE3E9" d="M13.167 11.009c.91-.626.91-1.64 0-2.266L8.463 5.51c-.91-.626-1.648-.233-1.648.86v7.015c0 1.1.738 1.485 1.648.86l4.704-3.235z"/>
                <g fill="#4563EC" transform="translate(18 5)">
                    <rect width="56" height="3" x=".055" y=".946" rx="1.5"/>
                    <rect width="37.589" height="3" x=".055" y="5.946" rx="1.5"/>
                </g>
                <g transform="translate(94.817 3)">
                    <circle cx="7" cy="7" r="7" fill="#DDE3E9"/>
                    <circle cx="7" cy="7" r="3" fill="#F2F2F2"/>
                </g>
            </g>
            <g transform="rotate(-4 1364.538 -1815.126)">
                <rect width="114" height="20" fill="#FBFBFB" rx="4"/>
                <path fill="#DDE3E9" d="M13.746 11.197c.91-.626.91-1.64 0-2.266L9.042 5.697c-.91-.626-1.648-.233-1.648.859v7.016c0 1.1.738 1.484 1.648.859l4.704-3.234z"/>
                <g fill="#4563EC" transform="translate(18 5)">
                    <rect width="56" height="3" x=".055" y=".946" rx="1.5"/>
                    <rect width="37.589" height="3" x=".055" y="5.946" rx="1.5"/>
                </g>
                <g transform="translate(94.817 3)">
                    <circle cx="7" cy="7" r="7" fill="#DDE3E9"/>
                    <circle cx="7" cy="7" r="3" fill="#AFB9C5"/>
                </g>
            </g>
            <g transform="rotate(-4 2567.26 -1857.126)">
                <rect width="114" height="20" fill="#FBFBFB" rx="4"/>
                <path fill="#DDE3E9" d="M14.176 11.638c.91-.625.91-1.64 0-2.265L9.472 6.138c-.91-.625-1.648-.232-1.648.86v7.015c0 1.1.738 1.485 1.648.86l4.704-3.235z"/>
                <g fill="#4563EC" transform="translate(18 5)">
                    <rect width="56" height="3" x=".055" y=".946" rx="1.5"/>
                    <rect width="37.589" height="3" x=".055" y="5.946" rx="1.5"/>
                </g>
                <g transform="translate(94.817 3)">
                    <circle cx="7" cy="7" r="7" fill="#DDE3E9"/>
                    <circle cx="7" cy="7" r="3" fill="#F2F2F2"/>
                </g>
            </g>
            <g transform="rotate(-4 2166.353 -1843.126)">
                <rect width="114" height="20" fill="#FBFBFB" rx="4"/>
                <path fill="#DDE3E9" d="M13.701 11.456c.91-.625.91-1.64 0-2.266L8.997 5.956c-.91-.625-1.648-.232-1.648.86v7.015c0 1.1.739 1.485 1.648.86l4.704-3.235z"/>
                <g fill="#4563EC" transform="translate(18 5)">
                    <rect width="56" height="3" x=".055" y=".946" rx="1.5"/>
                    <rect width="37.589" height="3" x=".055" y="5.946" rx="1.5"/>
                </g>
                <g transform="translate(94.817 3)">
                    <circle cx="7" cy="7" r="7" fill="#DDE3E9"/>
                    <circle cx="7" cy="7" r="3" fill="#F2F2F2"/>
                </g>
            </g>
            <g transform="rotate(-4 1765.445 -1829.126)">
                <rect width="114" height="20" fill="#FBFBFB" rx="4"/>
                <path fill="#DDE3E9" d="M14.116 11.373c.91-.625.91-1.64 0-2.266L9.412 5.873c-.91-.625-1.648-.232-1.648.86v7.015c0 1.1.739 1.485 1.648.86l4.704-3.235z"/>
                <g fill="#4563EC" transform="translate(18 5)">
                    <rect width="56" height="3" x=".055" y=".946" rx="1.5"/>
                    <rect width="37.589" height="3" x=".055" y="5.946" rx="1.5"/>
                </g>
                <g transform="translate(94.817 3)">
                    <circle cx="7" cy="7" r="7" fill="#DDE3E9"/>
                    <circle cx="7" cy="7" r="3" fill="#F2F2F2"/>
                </g>
            </g>
        </g>
    </g>
</svg>
